# xmcd
#
# Track frame offsets: 
#        150
#        19479
#        33517
#        46649
#        63724
#        80667
#        98326
#        113476
#        131394
#        147537
#        163334
#        184795
#        212583
#        226240
#
# Disc length: 3292 seconds
#
# Revision: 1
# Processed by: cddbd v1.5.2PL0 Copyright (c) Steve Scherf et al.
# Submitted via: ExactAudioCopyFreeDBPlugin 1.0
#
DISCID=bb0cda0e
DTITLE=Toby Keith - Bullets in the Gun
DYEAR=2010
DGENRE=Country
TTITLE0=Bullets in the Gun
TTITLE1=Somewhere Else
TTITLE2=Trailerhood
TTITLE3=In a Couple of Days
TTITLE4=Think About You All of the Time
TTITLE5=Kissin' in the Rain
TTITLE6=Drive it on Home
TTITLE7=Ain't Breakin' Nothin'
TTITLE8=Is That All You Got
TTITLE9=Get Out of My Car
TTITLE10=11 Months and 29 Days
TTITLE11=I've Been a Long Time Leaving (But I'll be a Long Time Gone)
TTITLE12=Chug-a-lug
TTITLE13=Sundown
EXTD=YEAR: 2010
EXTT0=
EXTT1=
EXTT2=
EXTT3=
EXTT4=
EXTT5=
EXTT6=
EXTT7=
EXTT8=
EXTT9=
EXTT10=
EXTT11=
EXTT12=
EXTT13=
PLAYORDER=
